<?xml version="1.0" standalone="no"?>
<!DOCTYPE svg PUBLIC "-//W3C//DTD SVG 20010904//EN"
 "http://www.w3.org/TR/2001/REC-SVG-20010904/DTD/svg10.dtd">
<svg version="1.0" xmlns="http://www.w3.org/2000/svg"
 width="300.000000pt" height="304.000000pt" viewBox="0 0 300.000000 304.000000"
 preserveAspectRatio="xMidYMid meet">
<metadata>
Created by potrace 1.10, written by Peter Selinger 2001-2011
</metadata>
<g transform="translate(0.000000,304.000000) scale(0.100000,-0.100000)"
fill="#000000" stroke="none">
<path d="M1510 3004 c-8 -3 -32 -15 -53 -25 -34 -17 -46 -18 -100 -8 -76 13
-148 5 -214 -25 -124 -58 -174 -162 -149 -308 7 -38 5 -48 -5 -48 -25 0 -133
-79 -206 -151 -40 -39 -98 -109 -129 -155 l-57 -83 -51 -3 -51 -3 1 -37 c1
-36 0 -38 -31 -38 -31 0 -65 -25 -65 -48 0 -6 11 -19 25 -28 31 -20 31 -28 0
-42 -37 -17 -32 -47 13 -76 20 -13 42 -30 48 -37 7 -8 15 -61 19 -119 10 -151
38 -268 91 -373 58 -115 198 -276 296 -339 26 -17 48 -35 48 -39 0 -10 -51
-17 -175 -25 -107 -6 -290 7 -384 27 -24 5 -45 8 -47 6 -2 -2 -7 -24 -10 -48
-10 -68 -35 -107 -133 -204 -103 -102 -141 -167 -141 -243 0 -58 9 -72 120
-187 97 -100 127 -150 140 -232 5 -31 11 -57 12 -58 2 -2 37 4 78 12 50 10
139 16 270 16 181 1 207 -1 365 -31 151 -29 196 -34 400 -39 245 -6 322 0 565
43 158 27 379 39 503 26 62 -7 129 -15 150 -18 l37 -7 0 36 c0 67 43 142 138
240 49 51 97 105 107 120 21 33 24 124 5 172 -6 16 -58 75 -114 130 -113 110
-134 141 -143 217 l-6 51 -66 -7 c-36 -3 -112 -10 -168 -16 -154 -14 -383 9
-383 40 0 5 32 28 71 52 155 95 185 126 197 203 5 28 20 70 35 95 14 25 40 88
58 140 28 83 33 112 37 231 5 151 -7 226 -58 357 -30 79 -87 180 -125 222 -15
16 -24 44 -28 77 -11 99 -52 164 -128 203 -29 15 -38 26 -43 57 -21 126 -142
255 -291 308 -50 18 -243 31 -275 19z m238 -94 c186 -61 288 -181 286 -337 0
-40 3 -73 7 -73 4 0 13 16 20 35 7 19 19 35 26 35 24 0 82 -70 93 -112 23 -85
-30 -186 -121 -232 -52 -25 -122 -35 -133 -17 -3 5 13 12 36 15 49 8 108 42
108 61 0 11 -9 10 -42 -5 -75 -34 -95 -28 -161 51 -61 73 -97 100 -212 160
-85 44 -111 80 -97 133 8 27 7 34 -3 30 -20 -8 -38 -61 -31 -90 7 -26 6 -26
-31 -19 -21 4 -65 10 -99 14 -77 8 -111 30 -120 76 -3 19 -10 35 -15 35 -15 0
-22 -51 -10 -77 17 -36 8 -38 -37 -8 -44 29 -62 60 -62 110 0 41 -16 46 -30 9
-23 -61 2 -123 67 -161 51 -30 51 -36 0 -22 -108 29 -158 151 -109 262 36 80
120 127 232 127 l70 0 -6 -27 c-4 -16 -11 -38 -15 -51 -11 -29 4 -21 44 25 36
41 57 53 122 70 61 15 144 9 223 -17z m-688 -335 c0 -4 -61 -35 -68 -35 -3 0
5 11 17 24 13 14 29 22 37 19 8 -3 14 -7 14 -8z m40 -65 c15 -11 39 -24 54
-30 31 -11 33 -28 8 -61 -10 -13 -29 -46 -42 -73 -21 -44 -23 -61 -22 -192 1
-167 9 -205 57 -267 l35 -46 -48 -25 c-27 -14 -77 -55 -114 -95 -36 -39 -70
-71 -75 -71 -5 0 -24 36 -42 80 -31 73 -35 79 -57 74 -39 -10 -28 14 16 36 46
23 47 31 20 101 -11 30 -17 63 -14 79 11 52 -93 110 -178 102 -16 -2 -28 1
-28 5 0 17 70 126 122 190 65 79 232 211 271 213 5 0 21 -9 37 -20z m398 -25
c117 -28 229 -91 329 -187 38 -38 40 -42 31 -72 -17 -49 -22 -49 -69 -7 -88
81 -230 138 -369 147 -76 6 -114 2 -223 -22 l-29 -7 28 44 c15 24 38 61 51 82
l23 37 83 0 c45 0 110 -7 145 -15z m740 -157 c16 -16 15 -38 0 -38 -23 0 -39
16 -32 33 7 20 16 21 32 5z m-668 -37 c30 -12 78 -34 106 -51 l52 -29 7 -91
c5 -61 11 -90 19 -87 6 2 13 12 15 23 5 29 31 54 56 54 44 0 64 -53 40 -104
-18 -37 -44 -54 -56 -35 -4 8 -13 1 -23 -19 -26 -50 -58 -79 -121 -107 -35
-16 -74 -44 -93 -66 -68 -80 -158 -112 -230 -84 -35 14 -46 26 -68 73 -14 32
-33 65 -42 75 -12 14 -13 17 -1 17 22 0 35 -12 53 -47 12 -24 25 -34 51 -39
88 -16 173 23 195 91 6 18 22 41 36 49 23 16 23 18 10 45 -25 47 -101 96 -131
85 -22 -9 -18 -24 5 -24 28 0 44 -34 24 -51 -11 -9 -18 -9 -26 -1 -8 8 -21 6
-49 -9 -49 -24 -67 -24 -96 3 -13 12 -23 16 -23 9 0 -7 -4 -9 -10 -6 -17 10
-11 43 10 58 26 18 40 59 40 116 0 54 -12 71 -52 71 -68 0 -100 -43 -90 -122
l4 -38 28 20 c28 20 80 27 80 11 0 -5 -7 -14 -16 -22 -25 -20 -67 -111 -66
-142 1 -28 0 -28 -18 -12 -29 26 -39 69 -44 190 -4 93 4 172 21 194 1 2 24 10
50 18 74 20 282 11 353 -16z m685 -85 c131 -234 149 -462 58 -703 -15 -40 -33
-73 -39 -73 -7 0 -19 11 -27 24 -21 32 -233 283 -272 323 -32 32 -76 53 -152
73 -24 6 -43 14 -43 19 0 12 32 38 56 45 71 21 105 124 64 191 -12 20 -19 39
-16 43 4 3 46 7 94 7 100 0 131 13 190 75 20 22 40 40 44 40 4 0 23 -29 43
-64z m-977 -33 c2 -7 -4 -13 -13 -13 -21 0 -45 -24 -45 -44 0 -9 -4 -16 -10
-16 -18 0 -11 49 11 71 21 21 50 22 57 2z m528 -31 c-33 -4 -41 1 -32 23 5 14
9 14 33 -2 l27 -18 -28 -3z m-1197 -20 c13 -24 25 -58 27 -75 1 -18 3 -36 4
-42 1 -5 9 10 18 35 16 40 21 45 52 48 39 3 125 -37 125 -58 0 -24 -32 -36
-52 -18 -10 8 -34 18 -54 22 -34 6 -36 5 -36 -19 0 -14 3 -25 8 -25 5 0 9 -6
9 -14 0 -15 62 -68 92 -79 19 -7 34 8 18 18 -13 8 -13 55 0 57 6 0 15 1 21 2
7 1 18 -19 25 -44 13 -43 13 -46 -8 -60 -13 -8 -38 -28 -56 -44 -28 -25 -31
-31 -18 -38 9 -5 16 -15 16 -22 0 -17 -65 -46 -123 -56 -43 -6 -49 -5 -59 14
-6 12 -14 23 -19 26 -4 3 -24 40 -44 83 -28 59 -46 84 -76 104 -22 14 -38 31
-36 37 7 19 51 7 74 -19 30 -34 45 -33 32 4 -6 16 -30 48 -55 71 -46 43 -49
60 -9 60 29 0 81 -57 90 -99 8 -37 25 -41 25 -6 0 33 -24 91 -56 132 -29 38
-24 56 14 51 20 -2 33 -15 51 -46z m164 -126 c20 -16 23 -36 4 -36 -17 0 -37
20 -37 37 0 16 10 16 33 -1z m756 -40 c9 -10 8 -16 -4 -26 -20 -16 -38 -1 -29
23 8 21 18 22 33 3z m-231 -41 c11 -10 7 -15 -23 -29 -44 -21 -60 -11 -43 27
14 28 38 29 66 2z m147 3 c-11 -7 -31 -13 -45 -14 l-25 -3 25 14 c14 8 34 14
45 14 20 0 20 0 0 -11z m65 -30 c-1 -7 -11 -26 -24 -41 -23 -29 -73 -46 -133
-47 -39 0 -54 19 -22 28 23 6 23 6 -5 12 -58 10 -37 25 37 25 47 0 82 6 102
17 38 20 45 21 45 6z m259 -47 c8 -5 11 -16 7 -26 -5 -14 -9 -15 -21 -5 -16
13 -21 40 -7 40 4 0 13 -4 21 -9z m-39 -56 c0 -87 -84 -201 -188 -257 -56 -30
-67 -25 -57 23 5 24 18 35 64 58 83 43 139 109 155 184 9 38 26 34 26 -8z
m-502 -142 c-3 -141 -2 -145 20 -163 93 -76 334 -90 447 -27 35 20 40 28 47
72 36 237 45 275 69 275 11 0 19 -1 19 -3 0 -2 -13 -57 -30 -123 -19 -77 -29
-142 -29 -184 1 -36 3 -57 6 -47 7 26 25 20 56 -20 33 -44 37 -69 7 -53 -11 6
-20 16 -20 22 0 6 -3 9 -6 5 -10 -10 7 -47 23 -47 30 0 6 -23 -45 -42 -50 -19
-69 -38 -37 -38 8 0 57 16 109 36 113 42 181 54 239 43 71 -14 87 -11 52 9
-23 13 -56 17 -138 18 -123 1 -135 7 -144 72 -3 23 -9 39 -13 37 -5 -3 -20 -1
-35 5 -26 10 -27 13 -20 57 9 58 53 215 64 226 18 19 74 -28 167 -140 53 -65
118 -143 144 -173 61 -71 80 -110 80 -159 0 -31 -6 -46 -27 -66 -30 -28 -206
-135 -222 -135 -5 0 -23 12 -38 26 -55 51 -175 124 -214 130 -21 4 -39 10 -39
15 0 5 -9 9 -20 9 -14 0 -18 5 -14 18 5 15 4 15 -6 2 -7 -10 -13 -11 -16 -4
-3 6 -16 9 -29 7 -13 -3 -38 2 -56 11 -40 20 -91 20 -146 1 -23 -8 -49 -12
-58 -9 -8 3 -15 1 -15 -5 0 -6 -9 -11 -20 -11 -11 0 -20 -4 -20 -8 0 -5 -25
-17 -57 -28 -49 -16 -74 -35 -118 -83 -23 -26 -115 -92 -115 -83 0 6 11 24 25
40 14 17 25 40 25 51 0 19 3 20 21 11 11 -6 27 -10 36 -8 11 2 2 12 -28 32
-24 16 -67 46 -96 68 -58 44 -58 45 -10 120 35 53 31 53 152 -9 90 -46 105
-60 105 -95 0 -29 14 -38 23 -14 7 16 -2 56 -15 73 -5 6 -38 25 -74 42 -35 16
-64 32 -64 35 0 3 7 21 17 40 17 37 33 39 33 4 0 -12 2 -19 5 -17 2 3 7 66 9
140 5 144 13 202 28 193 5 -3 8 -69 6 -151z m442 138 c0 -22 -69 -98 -115
-128 -95 -61 -98 -64 -97 -116 1 -35 -2 -47 -13 -47 -11 0 -15 12 -15 45 0 46
-22 78 -62 91 -35 11 -17 22 35 21 66 -1 134 33 197 97 41 43 70 58 70 37z
m-493 -15 c-3 -7 -8 -55 -12 -107 -7 -98 -21 -153 -37 -143 -5 3 -6 19 -3 35
4 16 2 29 -3 29 -15 0 -22 -26 -22 -82 0 -44 -2 -49 -17 -42 -10 4 -30 8 -45
8 -23 1 -30 8 -47 56 -21 57 -19 78 5 46 20 -29 28 -13 10 22 l-15 29 78 82
c43 44 86 81 95 81 11 0 16 -5 13 -14z m-313 -28 c4 -15 0 -27 -12 -36 -40
-31 -117 -64 -164 -69 -42 -5 -53 -3 -64 12 -22 30 -17 35 39 35 56 0 154 39
164 66 8 22 30 16 37 -8z m-275 -34 c6 -15 7 -23 1 -19 -13 8 -13 -30 0 -53 5
-9 25 -55 44 -102 39 -97 108 -225 137 -256 10 -11 19 -25 19 -30 0 -6 22 -21
48 -33 44 -21 48 -25 44 -52 -2 -16 0 -29 4 -29 5 0 15 -10 23 -22 16 -26 15
-25 -54 32 -169 141 -281 341 -301 539 -6 52 -5 61 8 56 8 -3 20 -17 27 -31z
m746 -80 c22 -23 46 -43 53 -45 20 -7 20 -63 0 -67 -27 -5 -102 77 -121 133
-24 68 -21 87 5 50 12 -16 40 -48 63 -71z m-401 -64 c25 -63 46 -120 46 -126
0 -7 -9 -28 -19 -46 -36 -63 -35 -72 11 -103 l42 -28 -29 -14 c-19 -10 -45
-14 -79 -10 -45 4 -55 10 -93 51 -41 46 -163 278 -163 311 0 10 10 15 34 15
43 0 105 22 153 54 20 14 40 22 44 18 4 -4 28 -59 53 -122z m780 8 c-4 -29
-10 -60 -15 -69 -9 -18 -126 -59 -169 -59 -51 0 -35 27 34 61 35 17 83 51 107
75 24 24 45 44 46 44 2 0 1 -24 -3 -52z m-439 -11 c23 -35 79 -71 144 -90 55
-17 71 -43 20 -32 -101 22 -189 65 -189 93 0 9 -3 27 -6 40 -9 32 8 27 31 -11z
m378 -287 c96 -33 178 -86 336 -216 l97 -81 116 -13 c67 -8 150 -10 197 -7 45
4 116 10 159 13 l77 7 32 -79 c29 -69 45 -92 132 -181 88 -89 100 -106 106
-146 9 -61 -14 -104 -114 -201 -79 -79 -124 -150 -138 -218 l-6 -30 -91 7
c-180 14 -325 9 -496 -19 -52 -9 -126 -18 -165 -21 -38 -3 -90 -10 -115 -15
-94 -19 -286 -30 -366 -20 -43 5 -108 11 -144 14 -36 3 -90 10 -120 15 -30 6
-73 12 -95 15 -47 4 -178 23 -250 35 -56 10 -284 5 -360 -7 -71 -11 -82 -7
-89 36 -9 61 -43 112 -137 208 -53 55 -97 110 -109 137 -19 43 -20 49 -5 84 9
20 56 77 105 126 87 85 137 160 154 230 7 31 -2 31 176 16 99 -8 166 -7 253 1
136 13 155 18 199 59 153 137 336 245 461 271 54 11 135 3 200 -20z m-628
-100 c-3 -11 -7 -33 -7 -50 -1 -16 -4 -30 -7 -30 -4 0 -31 17 -61 37 l-55 38
42 5 c24 4 46 9 49 13 4 4 16 7 26 7 15 0 18 -5 13 -20z m-31 -125 c-29 -25
-44 -31 -44 -18 0 15 34 43 53 43 18 0 17 -3 -9 -25z"/>
<path d="M1366 2700 c4 -14 11 -26 15 -28 5 -2 9 -10 9 -18 0 -8 6 -14 14 -14
8 0 17 -7 20 -16 4 -9 9 -14 13 -11 3 4 -7 22 -23 40 -16 19 -35 42 -42 53
-11 17 -12 17 -6 -6z"/>
<path d="M2117 2463 c-4 -7 -5 -24 -1 -38 4 -15 1 -31 -6 -40 -7 -8 -9 -15 -5
-15 4 0 2 -7 -5 -15 -7 -9 -10 -18 -7 -22 12 -11 38 68 35 105 -2 22 -6 32
-11 25z"/>
<path d="M1975 2417 c-16 -12 -45 -27 -65 -33 l-35 -12 30 -1 c30 -1 115 45
115 61 0 13 -13 9 -45 -15z"/>
<path d="M1477 2273 c-16 -15 -4 -23 35 -23 28 0 49 -7 64 -21 31 -29 39 -7 9
25 -18 19 -34 26 -63 26 -21 0 -42 -3 -45 -7z"/>
<path d="M1204 2263 c-14 -10 -37 -53 -31 -59 2 -2 12 5 22 16 11 13 31 20 52
20 23 0 33 4 31 13 -5 14 -58 21 -74 10z"/>
<path d="M1464 2209 c-4 -7 -8 -27 -10 -46 -2 -19 -6 -43 -9 -53 -6 -17 -2
-19 42 -14 40 5 54 2 85 -20 21 -14 39 -22 41 -18 2 4 4 31 3 60 -1 46 -5 57
-29 78 -31 26 -110 34 -123 13z m95 -19 c26 -13 47 -68 32 -83 -8 -8 -11 -3
-11 19 0 41 -35 59 -62 32 -10 -10 -18 -22 -18 -28 0 -5 -4 -10 -10 -10 -16 0
-12 47 6 64 18 18 38 20 63 6z"/>
<path d="M1801 2076 c-7 -8 -11 -27 -9 -42 3 -28 31 -54 45 -41 4 5 2 12 -5
16 -14 8 -6 41 12 54 7 5 6 10 -4 17 -20 13 -25 12 -39 -4z"/>
<path d="M694 1889 c-3 -6 -1 -15 5 -19 16 -10 17 -66 1 -85 -7 -8 -21 -15
-31 -15 -11 0 -19 -7 -19 -15 0 -22 42 -19 68 5 26 24 29 68 7 110 -17 33 -21
35 -31 19z"/>
<path d="M1050 1403 c0 -8 134 -85 158 -91 6 -2 12 1 12 7 0 6 -33 28 -72 51
-71 39 -98 48 -98 33z"/>
<path d="M1020 1370 c0 -5 19 -22 43 -36 23 -14 59 -38 80 -52 27 -18 41 -22
48 -15 8 8 4 15 -12 26 -13 8 -50 31 -82 51 -59 37 -77 43 -77 26z"/>
<path d="M1000 1328 c1 -14 149 -112 157 -104 10 9 -9 26 -78 71 -77 50 -79
51 -79 33z"/>
<path d="M2201 1295 c-1 -5 -14 -19 -30 -30 -16 -10 -27 -24 -24 -29 4 -5 -1
-7 -11 -3 -9 4 -24 3 -34 -2 -9 -5 -39 -20 -66 -32 -28 -13 -44 -25 -38 -27 7
-2 38 8 68 22 30 14 61 26 69 26 23 0 79 55 72 71 -3 8 -6 10 -6 4z"/>
<path d="M840 1561 c0 -20 33 -85 37 -73 3 7 -2 28 -12 47 -16 34 -25 44 -25
26z"/>
<path d="M888 1421 c10 -27 18 -48 20 -47 8 9 -13 96 -23 96 -10 0 -9 -11 3
-49z"/>
<path d="M1450 1230 c-102 -18 -214 -82 -372 -212 -82 -67 -115 -88 -140 -90
-18 -1 -41 -6 -51 -10 -26 -13 -407 -11 -441 2 -15 5 -29 10 -31 10 -2 0 -18
-30 -35 -66 -23 -48 -60 -95 -136 -175 -139 -146 -139 -142 -1 -287 96 -102
123 -139 147 -205 l10 -27 197 6 c210 7 206 7 563 -52 296 -49 475 -44 825 24
131 25 157 27 386 26 l246 -2 12 38 c14 47 87 145 136 183 61 48 95 104 95
155 0 43 -4 48 -90 137 -65 66 -101 112 -128 166 -29 57 -42 73 -57 71 -161
-20 -204 -22 -315 -15 -69 4 -132 7 -140 6 -34 -5 -127 41 -160 78 -19 21
-175 143 -220 171 -102 64 -200 87 -300 68z m80 -28 l-35 -5 29 -6 c29 -6 29
-7 12 -24 -18 -17 -19 -17 -43 5 -22 21 -23 23 -6 29 10 4 32 7 48 7 28 -1 28
-2 -5 -6z m-88 -52 l30 0 -5 -62 c-3 -35 -8 -74 -12 -88 -5 -21 -1 -28 25 -42
28 -16 32 -16 60 0 27 15 29 20 23 47 -4 17 -8 57 -8 89 l0 59 48 3 c27 2 47
0 45 -4 -38 -72 -42 -98 -24 -157 5 -16 -3 -26 -46 -50 -29 -16 -60 -30 -68
-30 -8 0 -38 13 -66 30 l-52 30 5 56 c4 40 1 66 -10 87 -16 33 -12 46 11 37 7
-3 27 -5 44 -5z m271 -4 c6 -15 -1 -26 -14 -26 -5 0 -5 8 -2 18 6 15 5 15 -10
3 -9 -7 -17 -9 -17 -4 0 25 35 32 43 9z m-189 -93 c4 -47 2 -74 -5 -79 -22
-13 -29 14 -23 90 4 42 10 73 14 69 4 -4 10 -40 14 -80z m-205 39 c-3 -30 1
-35 16 -22 19 16 21 14 28 -32 5 -32 3 -37 -19 -42 -14 -4 -30 -3 -37 1 -7 4
-7 0 2 -10 7 -9 10 -17 5 -17 -5 0 -14 -11 -21 -25 -11 -24 -10 -25 25 -24 21
1 29 3 20 6 -19 5 -24 38 -8 48 5 3 15 -5 22 -19 6 -15 19 -26 31 -26 29 0 89
-40 83 -55 -2 -8 1 -16 8 -18 10 -4 12 1 9 14 -4 16 0 19 26 19 23 0 31 -5 32
-17 0 -14 2 -13 9 5 5 12 18 25 27 29 21 8 35 18 71 53 15 14 38 25 51 25 13
0 26 6 29 14 3 8 0 11 -6 7 -15 -9 -42 4 -42 20 0 8 -4 14 -9 14 -17 0 -20 41
-3 46 9 3 32 13 51 22 33 16 34 16 57 -11 13 -16 24 -23 24 -18 0 6 5 11 10
11 6 0 10 -6 8 -12 -1 -7 3 -23 10 -35 7 -12 9 -29 5 -39 -6 -16 -7 -16 -19 1
-12 16 -14 16 -41 0 -21 -12 -28 -24 -27 -43 1 -37 20 -38 28 -2 7 36 31 36
30 1 0 -11 1 -21 2 -21 1 0 13 20 25 45 l22 44 29 -17 c16 -9 44 -31 63 -49
51 -48 84 -62 207 -83 63 -10 122 -22 132 -26 13 -5 17 -4 13 3 -8 13 59 23
157 22 l68 0 -23 -27 c-13 -15 -26 -29 -29 -32 -3 -3 -14 -24 -24 -46 -21 -47
-15 -116 12 -147 8 -9 12 -20 7 -25 -4 -4 -10 -2 -12 5 -7 18 -59 -4 -78 -34
-9 -13 -14 -31 -11 -39 3 -8 1 -14 -3 -14 -5 0 -11 39 -15 88 -7 109 -6 119 7
165 10 35 8 40 -15 62 -14 13 -29 21 -32 18 -9 -9 -167 -9 -173 -1 -2 5 -14 6
-27 2 -23 -5 -56 -12 -68 -13 -5 -1 -8 -5 -8 -11 0 -6 32 -10 75 -10 75 0 88
-7 60 -30 -12 -10 -15 -40 -15 -154 l0 -142 -27 -26 c-16 -14 -41 -28 -56 -32
-34 -8 -93 8 -126 33 -24 18 -24 20 -9 52 9 19 19 44 23 57 3 12 13 22 20 22
11 0 13 -10 9 -43 -5 -35 -2 -45 16 -62 16 -15 25 -17 38 -9 14 10 17 32 20
149 2 118 0 140 -14 156 -24 27 -34 23 -25 -8 9 -32 4 -193 -5 -193 -1 0 -9 7
-18 15 -16 16 -71 11 -61 -5 8 -12 -11 -21 -29 -14 -9 4 -20 29 -27 65 -6 32
-16 59 -20 59 -5 0 -9 14 -9 31 0 20 4 28 12 23 7 -4 8 -3 4 5 -4 6 -12 8 -18
5 -7 -5 -9 2 -6 19 7 39 -15 52 -88 52 -76 0 -92 -13 -98 -75 -2 -25 -4 -49
-5 -53 -1 -5 -5 -6 -9 -3 -7 4 -12 -13 -15 -56 -1 -10 -5 -18 -9 -18 -4 0 -8
-9 -8 -21 0 -15 -5 -19 -15 -15 -11 4 -15 -1 -15 -17 0 -12 -7 -44 -16 -72 -9
-27 -18 -56 -20 -62 -2 -9 -33 -13 -107 -13 -57 0 -107 3 -110 6 -3 4 0 16 8
28 22 30 22 288 0 306 -8 7 -15 19 -15 26 0 11 18 14 75 14 75 0 88 -7 60 -30
-12 -10 -15 -41 -15 -155 0 -125 2 -144 17 -149 34 -13 82 39 99 109 6 26 6
28 -7 15 -8 -8 -24 -28 -37 -44 -12 -16 -22 -27 -23 -25 -12 58 -18 229 -8
250 6 11 2 24 -10 38 -15 17 -30 21 -75 21 -90 0 -92 -3 -88 -131 4 -95 2
-109 -12 -109 -14 0 -22 24 -17 53 0 4 -4 7 -10 7 -7 0 -9 10 -5 26 5 19 3 24
-5 18 -9 -5 -10 1 -6 24 4 20 2 32 -4 32 -6 0 -9 6 -6 14 8 20 -31 68 -52 64
-9 -1 -21 1 -28 5 -6 4 -14 3 -18 -3 -3 -5 -19 -10 -34 -10 -30 0 -64 -29 -60
-52 1 -7 0 -20 -4 -28 -3 -8 -8 -33 -11 -54 -3 -22 -9 -42 -13 -45 -4 -3 -8
-13 -8 -21 0 -8 -9 -16 -20 -18 -16 -3 -17 -1 -5 7 13 9 12 11 -4 11 -11 0
-16 3 -13 7 4 3 -1 11 -10 18 -15 11 -15 15 0 48 25 53 21 72 -22 106 -38 30
-44 32 -141 34 -56 1 -104 -1 -107 -6 -3 -5 -11 -6 -19 -3 -8 3 -11 0 -8 -9 4
-10 36 -14 128 -17 101 -2 126 -6 140 -21 25 -24 14 -81 -19 -103 -31 -20 -31
-27 -2 -39 12 -6 31 -27 42 -47 18 -33 18 -41 7 -85 -20 -75 -25 -78 -172 -81
-129 -4 -156 3 -110 28 19 10 20 21 20 155 0 133 -2 147 -20 162 -11 10 -20
24 -20 32 0 11 -3 12 -11 4 -8 -8 -8 -17 0 -32 8 -13 11 -71 9 -158 l-3 -138
-18 40 c-30 66 -34 70 -55 68 -21 -3 -36 29 -21 44 17 17 17 96 0 133 -9 19
-19 37 -23 38 -5 2 -8 10 -8 18 0 8 -4 14 -8 14 -5 0 -17 6 -28 14 -17 13 -5
14 101 10 121 -5 334 10 364 26 9 5 23 11 31 15 29 12 60 32 55 36 -2 3 14 16
35 29 22 14 40 28 40 33 0 4 5 5 10 2 6 -3 10 0 10 8 0 14 20 27 43 27 8 0 7
-4 -1 -12 -7 -7 -12 -17 -12 -22 0 -6 4 -5 9 3 5 8 11 9 15 3 3 -6 0 -16 -7
-24 -13 -13 -10 -40 8 -69 7 -12 19 -15 43 -12 23 4 30 9 23 17 -10 11 0 39
13 37 3 -1 6 2 5 7 -1 4 -5 6 -10 5 -5 -2 -15 -4 -21 -5 -7 -2 -15 -14 -18
-27 -3 -14 -9 -25 -15 -25 -16 -1 -17 50 -1 63 12 10 12 16 -1 42 -21 41 -11
64 19 47 13 -7 26 -17 30 -23 4 -5 8 6 8 26 0 20 3 39 6 42 11 11 45 -14 43
-31z m-820 -278 c28 -36 45 -96 37 -129 -4 -15 -21 -41 -37 -58 l-31 -30 9
-146 c10 -154 6 -174 -31 -169 -20 3 -21 7 -18 159 l3 156 -30 32 c-39 41 -46
79 -26 127 34 83 86 106 124 58z m2107 -9 c18 -24 29 -52 32 -85 4 -46 2 -52
-30 -84 l-35 -35 8 -148 c5 -81 7 -154 4 -160 -2 -7 -12 -13 -22 -13 -41 1
-43 9 -34 169 l8 154 -31 28 c-27 24 -31 34 -31 81 0 44 5 62 28 91 37 48 67
49 103 2z m-1390 -10 c-7 -27 58 -289 80 -322 7 -12 14 -25 14 -28 0 -3 -36
-5 -80 -5 -80 0 -93 6 -65 30 37 31 3 100 -56 115 -23 6 -27 2 -37 -33 -16
-52 -15 -62 5 -84 23 -25 14 -30 -53 -26 l-59 3 21 20 c24 24 98 263 98 317
l0 37 69 0 c67 0 69 -1 63 -24z m601 3 c-7 -24 56 -275 79 -320 8 -15 14 -29
14 -33 0 -3 -36 -5 -80 -5 -80 0 -98 9 -60 30 28 15 25 44 -7 79 -35 37 -83
52 -83 25 0 -10 -5 -32 -12 -50 -10 -28 -9 -36 5 -52 26 -28 22 -32 -38 -32
-30 0 -55 2 -55 4 0 3 8 20 18 38 10 18 29 69 42 113 13 44 31 105 40 135 11
32 14 59 9 65 -19 20 -6 25 62 25 69 0 71 -1 66 -22z m523 8 c0 -8 -7 -16 -15
-20 -12 -4 -15 -31 -15 -156 0 -125 3 -152 15 -156 8 -4 15 -12 15 -20 0 -11
-18 -14 -75 -14 -60 0 -75 3 -75 15 0 8 5 15 10 15 6 0 10 60 10 160 0 100 -4
160 -10 160 -5 0 -10 7 -10 15 0 12 15 15 75 15 57 0 75 -3 75 -14z m-2001
-137 c6 -17 8 -36 4 -42 -3 -5 -1 -7 4 -4 6 4 18 -4 27 -18 14 -21 16 -46 12
-151 -2 -69 -7 -129 -11 -132 -8 -9 -129 120 -131 141 -1 9 6 17 14 17 25 0
52 31 52 59 0 34 -8 45 -47 65 -18 9 -33 20 -33 24 0 9 80 72 91 72 4 0 12
-14 18 -31z m2407 -3 c27 -28 26 -55 -1 -68 -32 -14 -48 -44 -35 -68 6 -11 7
-20 3 -20 -4 0 10 -12 31 -26 26 -18 34 -29 26 -34 -6 -4 -11 -10 -11 -14 1
-3 -16 -21 -36 -39 -21 -17 -46 -42 -57 -55 -30 -38 -40 -13 -44 121 -4 121
-4 124 21 151 14 15 29 41 32 57 6 25 10 29 28 23 12 -3 31 -16 43 -28z
m-2179 -127 c-3 -22 -1 -42 4 -45 5 -3 9 18 9 45 0 28 5 51 10 51 17 0 12
-120 -4 -126 -12 -5 -13 -23 -9 -96 l6 -90 -24 4 c-24 3 -24 5 -20 88 2 70 0
88 -13 99 -11 9 -16 30 -16 61 0 55 2 59 36 52 24 -4 26 -8 21 -43z m1866 -9
l4 -45 1 48 c1 26 7 47 12 47 6 0 11 -21 12 -47 l1 -48 4 45 c4 43 22 81 24
50 3 -45 -4 -107 -13 -118 -6 -7 -10 -49 -9 -97 2 -81 1 -85 -19 -85 -21 0
-21 3 -14 80 6 68 4 83 -10 99 -17 18 -30 107 -19 124 10 16 22 -8 26 -53z
m377 40 c28 -28 13 -64 -28 -68 -24 -2 -35 3 -47 22 -19 28 -13 43 19 56 31
13 34 12 56 -10z m-2522 -18 c5 -32 -15 -52 -49 -52 -22 0 -32 7 -41 25 -16
35 5 57 51 53 29 -2 37 -8 39 -26z m843 -43 c9 -17 8 -23 -2 -30 -17 -10 -28
7 -22 32 7 24 10 24 24 -2z m605 -36 l-1 -48 68 -14 c62 -13 71 -13 97 2 34
21 45 21 62 3 15 -15 130 -28 122 -14 -4 5 0 8 7 6 8 -1 26 6 41 16 27 17 28
17 61 -3 54 -33 123 -25 167 19 26 26 32 14 35 -78 3 -85 1 -78 27 -102 21
-19 55 -29 44 -12 -2 4 7 12 20 19 13 6 22 8 19 3 -7 -11 20 -20 60 -20 19 0
36 -4 39 -9 9 -14 -27 -38 -69 -44 -23 -4 -34 -3 -27 2 10 6 7 10 -12 13 -14
3 -26 2 -26 -2 0 -5 -24 -6 -52 -4 -143 10 -307 6 -288 -7 11 -7 6 -9 -17 -4
-18 4 -34 2 -38 -4 -3 -6 -14 -11 -23 -11 -15 0 -15 2 -2 10 13 8 13 10 -2 10
-9 0 -19 -4 -22 -9 -3 -5 -14 -11 -24 -13 -17 -5 -18 -2 -8 32 14 56 -2 101
-44 122 -24 12 -37 14 -46 7 -9 -7 -19 -7 -31 0 -11 5 -25 6 -32 2 -7 -5 -38
-6 -68 -4 -39 3 -61 0 -79 -12 -22 -14 -25 -14 -30 0 -3 8 -17 15 -31 15 -13
0 -21 4 -18 10 3 6 0 10 -8 10 -8 0 -20 7 -27 15 -11 13 -15 13 -21 3 -6 -9
-9 -10 -9 -1 0 7 -12 1 -26 -12 -19 -17 -37 -23 -70 -23 -25 0 -50 -5 -57 -10
-9 -8 -19 -4 -35 12 -12 13 -33 24 -47 24 -14 0 -38 5 -55 12 -25 11 -34 10
-56 -5 -18 -12 -36 -15 -60 -10 -21 4 -34 2 -34 -5 0 -7 -6 -6 -19 2 -14 9
-26 8 -49 -1 -17 -7 -31 -16 -30 -20 1 -3 -2 -14 -6 -23 -4 -10 -6 -41 -4 -70
l3 -53 -67 -1 c-37 0 -65 2 -63 6 2 3 -24 6 -58 6 -34 1 -87 2 -117 2 -30 1
-101 0 -158 -2 -81 -4 -105 -1 -117 10 -24 24 -18 31 28 38 64 10 89 9 96 -3
4 -6 17 -2 35 12 26 21 28 29 31 100 1 43 5 80 8 84 4 3 16 -4 27 -18 19 -21
31 -24 120 -27 73 -3 110 0 138 11 30 12 44 13 72 4 19 -7 44 -12 55 -11 30 2
75 22 75 34 0 6 7 6 19 -2 11 -7 18 -15 16 -19 -12 -18 124 -25 157 -8 14 8
23 8 27 0 4 -6 46 -8 121 -5 129 5 137 5 183 2 20 -1 44 6 60 18 22 16 25 25
22 57 -4 26 -1 37 9 37 9 0 13 -14 12 -47z m-479 -130 c4 -10 1 -19 -6 -21 -7
-2 -8 -8 -3 -15 5 -7 12 -35 14 -64 l5 -52 -71 2 c-55 2 -71 5 -71 17 -1 29
-16 60 -31 60 -16 0 -20 -45 -4 -55 20 -13 9 -25 -22 -25 l-33 0 0 75 0 75 29
0 c25 0 27 -3 22 -25 -4 -14 -2 -25 4 -25 5 0 17 11 26 25 16 25 64 36 64 15
0 -5 -3 -10 -7 -10 -5 0 -14 -4 -22 -9 -21 -13 23 -101 51 -101 18 0 19 5 14
68 -3 38 -3 72 1 75 12 13 34 7 40 -10z m99 -33 c8 0 14 -7 14 -15 0 -8 -7
-15 -15 -15 -10 0 -15 -10 -15 -31 0 -27 3 -31 21 -26 15 4 19 1 17 -11 -2
-12 -14 -17 -38 -17 -35 0 -35 1 -41 50 -3 27 -3 59 -1 72 5 27 36 36 40 11 2
-10 10 -18 18 -18z m229 13 c0 -25 3 -27 28 -18 28 11 48 -13 41 -50 -3 -19
-1 -35 5 -39 22 -14 10 -27 -21 -24 -32 3 -33 4 -30 46 3 34 0 42 -14 42 -14
0 -16 -7 -12 -45 5 -43 4 -45 -21 -45 -26 0 -26 0 -26 80 0 80 0 81 25 78 18
-2 25 -9 25 -25z m-80 -33 c0 -9 -10 -14 -30 -15 -25 0 -30 -4 -30 -25 0 -20
6 -26 28 -28 15 -2 27 2 27 8 0 6 5 8 10 5 7 -4 7 -13 0 -26 -14 -25 -60 -25
-94 2 -31 25 -33 52 -5 80 24 24 94 24 94 -1z m286 10 c36 -20 17 -50 -32 -50
-11 0 -19 -7 -19 -16 0 -13 7 -15 36 -11 29 5 35 3 32 -11 -2 -12 -15 -18 -40
-20 -29 -3 -43 2 -63 22 -31 31 -31 41 0 71 26 27 54 31 86 15z m165 -5 c1 -5
4 -31 7 -57 4 -47 4 -48 -23 -48 -27 0 -27 1 -22 45 4 38 2 45 -12 45 -14 0
-17 -8 -14 -42 3 -41 1 -43 -27 -46 l-30 -3 0 59 0 59 59 -1 c33 0 60 -5 62
-11z m-656 -123 c0 -11 60 -9 78 2 7 4 21 4 30 0 24 -11 102 -11 102 -1 0 5 6
5 13 -1 16 -13 116 -13 144 0 17 8 28 7 45 -4 24 -16 83 -14 94 3 8 14 24 11
24 -5 0 -12 -63 -25 -157 -30 -18 -1 -36 -5 -39 -9 -10 -9 -254 -9 -254 1 0 4
-15 7 -32 8 -64 2 -118 9 -118 15 0 13 28 17 39 6 8 -8 11 -7 11 6 0 9 5 17
10 17 6 0 10 -4 10 -8z"/>
<path d="M1700 1053 c14 -9 28 -21 31 -26 3 -5 9 -2 12 6 3 9 -4 19 -19 26
-37 17 -52 13 -24 -6z"/>
<path d="M790 726 c0 -53 14 -59 49 -22 31 33 24 60 -17 64 -32 3 -32 3 -32
-42z"/>
<path d="M790 565 l0 -75 29 0 c37 0 54 21 54 68 0 55 -18 82 -53 82 l-30 0 0
-75z"/>
<path d="M1117 713 c-2 -5 -7 -24 -11 -44 -6 -32 -3 -37 20 -48 15 -6 28 -10
30 -8 2 2 -2 27 -8 55 -12 49 -21 62 -31 45z"/>
<path d="M1721 707 c-24 -62 -23 -71 10 -89 30 -18 67 -26 42 -10 -7 4 -19 35
-27 67 -13 58 -14 59 -25 32z"/>
<path d="M530 526 c0 -14 5 -28 10 -31 6 -4 10 7 10 24 0 17 -4 31 -10 31 -5
0 -10 -11 -10 -24z"/>
</g>
</svg>
